<svg width="243" height="93" viewBox="0 0 243 93" fill="none" xmlns="http://www.w3.org/2000/svg">
          <path d="M15.3293 23.352C15.7133 22.68 16.2893 21.912 16.3853 21.144L17.5373 18.744C17.5373 18.552 17.6333 18.552 17.7293 18.456C17.7293 18.552 17.8253 18.744 17.8253 18.744L17.4413 20.856C17.4413 21.048 17.4413 21.144 17.3453 21.144C17.2493 21.144 17.1533 21.048 17.0573 20.952H16.9613V21.048L16.3853 22.392C15.7133 23.64 15.2333 25.176 14.5613 26.52L13.7933 28.632C13.7933 28.92 13.6973 29.112 13.5053 29.304L12.9293 29.976C12.9293 30.072 12.7373 30.36 12.6413 30.36H12.5453C11.8733 30.36 11.8733 31.032 11.6813 31.608L11.5853 32.088C11.5853 32.28 11.5853 32.472 11.4893 32.76C10.8173 34.296 10.4333 35.736 9.7613 37.272C9.66531 37.464 9.56931 37.656 9.56931 37.848C9.56931 37.944 9.56931 38.136 9.66531 38.232C9.66531 38.328 9.7613 38.424 9.7613 38.52C9.7613 38.616 9.66531 38.808 9.66531 38.808C9.47331 39.768 8.99331 40.824 8.6093 41.784L7.55331 44.856C7.26531 45.72 7.1693 46.68 6.8813 47.448C6.1133 49.368 5.4413 51.192 4.8653 53.208C4.2893 54.744 3.8093 56.28 3.5213 58.008C3.2333 58.584 2.9453 59.256 2.8493 60.024V60.6C2.8493 60.696 2.7533 60.792 2.7533 60.888L2.3693 62.232L2.0813 63.576C1.5053 65.4 1.2173 67.128 1.0253 68.856L0.737305 72.12V77.016C0.737305 77.592 0.929305 78.168 0.929305 78.84V80.28C0.929305 81.048 1.0253 81.816 1.4093 82.488L1.3133 83.736C1.4093 84.12 1.3133 84.408 1.6013 84.408C1.6973 84.408 1.8893 84.216 2.2733 84.12C2.3693 84.12 2.3693 83.928 2.4653 83.736C2.5613 83.16 2.9453 82.968 3.6173 82.68C3.7133 82.68 3.8093 82.68 3.8093 82.584V82.392C3.9053 82.296 3.9053 82.2 4.1933 82.2C4.2893 82.2 4.28931 82.392 4.3853 82.584V82.872C4.3853 82.968 4.4813 82.968 4.4813 82.968C4.5773 82.968 4.67331 82.872 4.67331 82.872L4.7693 81.912C4.7693 81.432 4.96131 81.048 5.24931 80.664C5.5373 80.376 5.63331 79.992 5.63331 79.704L5.7293 79.512C5.7293 79.224 5.63331 79.032 5.4413 78.744V78.552C5.4413 78.456 5.4413 78.36 5.5373 78.36C5.8253 78.072 5.92131 77.688 5.92131 77.304L6.0173 76.728C6.1133 76.248 6.1133 76.056 6.2093 75.864C6.4973 75.288 6.6893 74.712 6.6893 74.232L6.7853 73.56C6.7853 73.368 6.8813 73.176 6.9773 72.792L7.6493 70.68C7.9373 69.528 8.1293 68.28 8.3213 67.032C8.6093 66.168 8.8973 65.304 9.3773 64.44L10.4333 61.176C10.6253 60.216 11.1053 59.352 11.2013 58.392V57.816C11.8733 57.24 11.8733 56.472 12.0653 55.8C12.2573 55.32 12.6413 54.648 12.6413 54.072L12.7373 53.688C13.2173 53.208 13.1213 52.44 13.3133 51.864C13.4093 51.768 13.4093 51.576 13.6013 51.192C14.3693 49.848 15.0413 48.408 15.4253 46.872C15.5213 46.68 15.6173 46.584 15.6173 46.488C15.7133 45.912 16.1933 45.336 16.4813 44.76C16.5773 44.472 16.6733 44.088 17.0573 43.608C17.3453 43.128 17.5373 42.648 17.6333 42.072V41.304C17.5373 41.208 17.5373 41.208 17.6333 41.112C17.6333 41.016 17.6333 41.016 17.7293 40.92C18.1133 40.536 18.0173 39.672 18.5933 39.384C18.6893 39.384 18.7853 39.192 18.7853 39V38.712C18.8813 38.328 18.9773 38.136 19.2653 37.848C19.3613 37.752 19.4573 37.464 19.4573 37.272C19.6493 36.12 19.9373 35.64 20.6093 34.584C20.8013 34.488 20.8013 34.296 20.8973 34.104C21.0893 33.72 21.2813 33.24 21.3773 32.856V32.664C21.3773 32.568 21.2813 32.376 21.2813 32.28C21.2813 32.184 21.4733 32.088 21.5693 31.992C21.6653 31.608 21.8573 31.032 22.0493 30.648L22.3373 30.072C22.7213 29.88 22.7213 29.688 22.8173 29.208V28.824C22.8173 28.44 22.9133 28.056 23.2973 27.864C23.5853 27.672 23.7773 27.288 23.7773 27.096C23.7773 26.616 23.8733 26.04 24.3533 25.656C24.4493 25.656 24.4493 25.464 24.4493 25.368L24.7373 24.504C25.1213 23.256 25.8893 22.2 26.1773 20.952C26.1773 20.664 26.2733 20.376 26.4653 19.992C27.1373 19.224 27.6173 18.264 27.8093 17.208C27.8093 17.112 28.0013 17.016 28.0973 16.824C28.3853 16.536 28.5773 16.248 28.6733 15.96C28.9613 15.288 31.3613 10.68 31.4573 9.62399V9.52799C31.4573 9.336 31.6493 9.04799 31.7453 8.952C31.8413 8.75999 32.0333 8.66399 32.0333 8.568L32.4173 7.31999C32.4173 7.032 32.3213 6.648 32.4173 6.35999V5.11199C32.1293 4.63199 31.5533 4.24799 31.5533 3.672C31.5533 3.576 31.6493 3.38399 31.6493 3.28799C31.6493 3.192 31.3613 3.096 31.2653 3.096C30.9773 2.90399 30.4973 2.80799 30.3053 2.51999C30.2093 2.328 30.0173 2.13599 29.9213 2.13599C29.8253 2.13599 29.7293 2.232 29.5373 2.42399C29.4413 2.51999 29.4413 2.51999 29.3453 2.51999C29.2493 2.51999 29.1533 2.42399 29.0573 2.328L28.8653 1.848V1.752C28.7693 1.17599 28.4813 1.17599 28.0973 1.07999C27.9053 0.983995 27.8093 0.791992 27.7133 0.791992C27.6173 0.791992 27.3293 1.07999 27.3293 1.17599C27.2333 1.94399 26.8493 2.51999 25.9853 2.712C25.7933 2.80799 25.6973 2.90399 25.6013 3.192C24.9293 4.34399 24.2573 5.59199 23.5853 6.648C23.5853 6.744 23.3933 6.83999 23.3933 6.83999C23.2973 6.744 23.2013 6.744 23.1053 6.744C23.0093 6.744 22.9133 6.83999 22.8173 7.032L19.3613 14.328C18.4973 15.864 17.6333 17.496 17.1533 19.128C16.3853 20.28 15.9053 21.528 15.4253 22.872L15.3293 23.352ZM15.3293 23.352C14.8493 23.448 14.8493 23.736 14.6573 24.216L13.9853 25.848C13.5053 26.616 13.5053 27.384 13.0253 28.152L12.9293 29.208C12.9293 29.208 12.9293 29.304 13.0253 29.304V29.208L13.5053 28.344V28.152C13.5053 27.864 13.7933 27.768 13.8893 27.48V27.288C13.8893 26.808 14.1773 26.424 14.3693 26.04L15.3293 23.352Z" fill="white"/>
          <path d="M56.9671 70.104C56.8711 70.68 57.1591 71.16 57.2551 71.64L57.7351 72.024C57.5431 71.832 57.5431 71.544 57.5431 71.256C57.5431 71.16 57.6391 71.16 57.6391 71.16H57.8311C57.8311 71.448 58.0231 71.736 58.0231 72.024C58.0231 72.12 57.9271 72.312 57.8311 72.408C57.9271 72.504 58.0231 72.6 58.1191 72.888C58.5031 73.464 59.4631 73.752 59.7511 74.52H60.0391C60.5191 74.712 60.7111 75.192 61.0951 75.576C61.2871 75.768 61.1911 75.768 61.2871 75.768H61.5751C61.9591 75.768 62.2471 75.864 62.4391 75.864C62.6311 76.056 62.9191 76.248 63.2071 76.344C63.7831 76.44 64.6471 76.536 65.4151 76.536C65.8951 76.536 66.2791 76.536 66.5671 76.152V76.056C66.5671 76.056 66.6631 76.152 66.7591 76.152C66.7591 76.248 67.0471 76.248 67.0471 76.248C67.3351 76.056 67.8151 76.056 68.1031 75.672C68.1991 75.48 68.3911 75.384 68.4871 75.288C68.8711 75.192 69.2551 74.904 69.6391 74.52C69.8311 74.328 70.3111 74.04 70.5031 73.752C70.7911 73.656 70.9831 73.272 71.2711 73.08V72.888C71.2711 72.6 71.3671 72.408 71.4631 72.408C71.7511 72.312 71.7511 72.312 71.8471 72.12V71.832C71.8471 71.832 71.9431 71.64 72.0391 71.64C72.5191 71.544 72.7111 71.16 72.8071 70.968C72.9031 70.584 73.2871 70.296 73.2871 70.008V69.912C73.6711 69.72 73.7671 69.24 74.0551 68.952L75.0151 67.896C75.0151 67.8 75.2071 67.608 75.2071 67.512C75.2071 67.416 75.2071 67.416 75.1111 67.32V67.032C75.2071 66.744 75.3031 66.36 75.4951 66.072V65.88H75.3031C75.2071 65.976 75.2071 65.976 75.1111 65.976C75.1111 65.976 75.1111 66.072 75.0151 66.072C75.0151 65.976 74.9191 65.88 75.0151 65.88C75.2071 65.688 75.2071 65.496 75.3991 65.304L76.0711 64.44C76.0711 64.344 76.1671 64.248 76.1671 64.152C76.1671 64.056 76.0711 64.056 76.1671 63.96C76.1671 63.96 76.0711 63.864 75.9751 63.864C75.9751 63.864 75.8791 64.056 75.6871 64.056C75.6871 64.152 75.4951 64.248 75.3991 64.248C75.3031 64.152 75.3031 64.056 75.3991 63.864V63.672C75.4951 63.576 75.4951 63.576 75.4951 63.48C75.4951 63.384 75.4951 63.288 75.3991 63.192C75.3031 63.192 75.3031 63.096 75.3031 63C75.3031 62.904 75.3991 62.808 75.4951 62.712C75.4951 62.52 75.6871 62.328 75.8791 62.136V61.944H75.5911C75.3991 62.136 75.1111 62.232 74.9191 62.232C74.7271 62.232 74.5351 62.232 74.4391 62.136H74.0551C73.6711 62.328 73.3831 62.616 73.3831 62.808C73.3831 63.096 73.0951 63.192 72.9031 63.192C72.8071 63.192 72.8071 63.288 72.7111 63.384C72.2311 63.864 71.7511 64.632 71.1751 65.208C71.1751 65.304 71.0791 65.304 71.0791 65.4C71.0791 65.784 70.6951 65.88 70.5031 66.072C70.1191 66.168 70.0231 66.36 70.0231 66.552V66.648C69.9271 66.84 69.8311 66.84 69.6391 67.032C69.4471 67.032 69.2551 67.128 69.2551 67.224C68.9671 67.512 68.6791 67.896 68.3911 68.088L68.1991 68.28C68.0071 68.28 68.0071 68.088 68.0071 68.088L67.8151 67.896V67.992C67.3351 68.472 66.7591 68.664 66.5671 69.048C65.8951 69.816 65.1271 70.488 64.1671 71.064C63.9751 71.256 63.7831 71.352 63.6871 71.352C63.5911 71.352 63.5911 71.256 63.4951 70.968C63.3991 70.776 63.3991 70.68 63.3991 70.488C63.3031 69.528 63.3991 68.472 63.3991 67.704V66.84C63.4951 66.168 63.7831 65.496 63.9751 64.824L64.8391 62.616L65.1271 61.368C65.9911 59.832 66.7591 58.104 67.7191 56.568C68.1991 55.512 68.7751 54.552 69.1591 53.4C70.0231 52.248 70.6951 51 71.3671 49.752C71.6551 49.368 71.8471 48.888 72.1351 48.6C72.3271 48.312 72.5191 48.024 72.5191 47.736L72.6151 47.544C72.6151 47.256 72.9991 47.064 73.0951 46.776L74.7271 43.8L75.5911 41.976C75.6871 41.208 75.9751 40.44 76.3591 39.576L76.9351 37.752C77.1271 37.368 77.1271 37.08 77.1271 36.696C77.2231 36.024 77.2231 35.256 77.0311 34.584C77.0311 34.104 76.7431 33.72 76.5511 33.336L76.2631 33.144C76.0711 33.144 76.0711 32.952 75.8791 32.952C75.4951 32.76 75.1111 32.664 74.7271 32.664H74.4391C74.0551 32.664 73.5751 32.568 73.2871 32.184C73.2871 31.896 73.0951 31.8 72.8071 31.8C72.7111 31.8 72.5191 31.8 72.3271 31.896H72.0391C71.3671 31.992 71.0791 31.992 70.5991 32.376C70.5031 32.568 70.2151 32.568 70.0231 32.664C69.7351 32.76 69.1591 32.76 68.7751 33.048C68.1991 33.336 67.6231 33.72 67.0471 34.104C66.6631 34.296 66.2791 34.392 66.1831 34.872C66.1831 34.872 66.1831 34.968 66.0871 35.064C64.9351 35.736 64.0711 36.408 63.4951 37.368C63.3991 37.368 63.3031 37.368 63.1111 37.56C62.6311 38.04 61.5751 38.616 61.2871 39.384L61.1911 39.48H60.9991C60.6151 39.48 60.6151 39.672 60.5191 39.864C60.5191 40.152 60.3271 40.536 59.9431 40.536C59.8471 40.536 59.8471 40.632 59.7511 40.728C59.1751 41.112 58.8871 41.592 58.5031 41.976L57.8311 42.456C57.6391 42.552 57.5431 42.84 57.4471 43.128C57.1591 43.704 56.3911 44.088 56.2951 44.664H55.7191C55.4311 45.336 55.0471 45.528 54.5671 45.912C54.3751 46.2 54.1831 46.488 54.0871 46.776V46.968C54.0871 47.064 54.0871 47.16 53.9911 47.256C53.6071 47.64 53.2231 48.024 53.0311 48.504C52.6471 49.176 51.8791 49.656 51.5911 50.232C51.3991 50.616 51.1111 50.616 50.8231 50.616H50.5351C50.4391 50.712 50.3431 50.808 50.2471 50.808C50.2471 50.712 50.1511 50.616 50.1511 50.616C50.1511 50.424 50.3431 50.232 50.3431 50.04C50.5351 49.272 50.7271 48.312 50.8231 47.448C50.9191 46.968 51.1111 46.488 51.1111 45.912V44.184C51.2071 43.512 50.9191 43.032 50.9191 42.36C50.9191 41.88 50.7271 41.496 50.4391 41.016C50.4391 40.92 50.3431 40.824 50.2471 40.824H50.0551C49.6711 40.824 49.4791 40.632 49.2871 40.536C49.1911 40.44 49.0951 40.344 48.9031 40.344C48.8071 40.344 48.7111 40.344 48.6151 40.44C48.4231 40.536 48.3271 40.536 48.2311 40.536C48.1351 40.536 48.0391 40.44 47.9431 40.248C47.8471 40.152 47.7511 40.056 47.7511 39.96C47.6551 39.96 47.4631 39.864 47.4631 39.864C47.3671 39.96 47.3671 40.056 47.2711 40.056C47.1751 40.056 47.1751 39.96 47.0791 39.864C46.8871 39.672 46.6951 39.576 46.5031 39.576C46.3111 39.576 46.1191 39.672 46.0231 39.768C45.7351 40.248 45.0631 40.248 44.5831 40.728C44.2951 40.728 44.1031 41.016 43.8151 41.016C43.4311 41.016 43.2391 41.208 43.0471 41.4L42.4711 41.88C41.7031 42.168 41.4151 42.552 41.1271 43.032C41.0311 43.128 41.0311 43.224 41.0311 43.32C40.3591 43.896 39.8791 44.568 39.0151 45.048C38.6311 45.336 38.2471 45.72 37.9591 46.2C37.7671 46.488 37.6711 46.776 37.1911 46.776C37.0951 46.776 36.9991 46.968 36.9991 47.064C36.4231 47.64 36.0391 48.312 35.3671 48.888C34.5031 49.944 33.8311 51 32.9671 52.056C32.4871 52.44 32.2951 52.728 32.0071 53.112C31.9111 53.304 31.6231 53.304 31.4311 53.304C31.3351 53.208 31.3351 53.208 31.3351 53.112L31.4311 52.824L31.8151 51.96L33.1591 49.176C33.5431 48.024 33.9271 46.968 34.4071 45.912C34.6951 45.528 34.6951 45.144 34.8871 44.76C35.3671 44.184 35.5591 43.32 36.0391 42.552C36.1351 42.168 36.4231 41.784 36.4231 41.496C36.4231 41.304 36.3271 41.208 36.3271 41.016C36.3271 41.016 36.3271 40.92 36.4231 40.824L37.3831 38.712C37.5751 38.328 37.7671 38.04 37.7671 37.656C37.8631 37.464 37.8631 37.272 37.7671 37.176V36.12C37.6711 35.928 37.6711 35.64 37.3831 35.448H36.8071C35.8471 35.448 35.6551 35.352 35.3671 34.584C35.3671 34.584 35.3671 34.488 35.2711 34.392L35.0791 34.2C34.9831 34.2 34.7911 34.392 34.6951 34.488C34.5991 34.584 34.5991 34.584 34.5991 34.68C34.5991 34.776 34.5031 34.872 34.5991 34.968C34.5991 35.16 34.5031 35.16 34.4071 35.16C34.3111 35.16 34.2151 35.16 34.1191 35.064C34.0231 34.968 33.8311 34.968 33.7351 34.968H33.6391C33.6391 35.064 33.5431 35.064 33.4471 35.064C33.3511 35.064 33.2551 35.064 33.2551 34.968H32.9671C32.7751 34.968 32.7751 35.064 32.6791 35.352C32.4871 35.736 32.1991 36.12 31.8151 36.504C31.5271 36.696 31.4311 36.888 31.4311 37.176C30.8551 38.04 30.3751 39.096 29.9911 40.056L28.1671 44.568L27.1111 46.68C26.8231 47.16 26.4391 47.64 26.4391 48.216C26.3431 48.6 26.0551 48.888 25.9591 49.176L25.1911 51C25.0951 51 25.0951 51.096 25.0951 51.192C24.7111 52.152 24.1351 53.208 24.0391 54.168C23.9431 54.456 23.6551 54.648 23.5591 54.936C23.5591 55.512 23.4631 55.992 23.3671 56.568C23.0791 57.24 22.8871 58.104 22.5031 58.968C22.4071 59.352 22.1191 59.832 22.1191 60.216V60.6C22.1191 61.08 21.7351 61.464 21.7351 61.944C21.8311 62.04 21.8311 62.136 21.7351 62.232C21.7351 62.424 21.6391 62.52 21.5431 62.616C21.5431 63 21.5431 63.192 21.5431 63.576L21.4471 64.152C21.4471 64.344 21.4471 64.536 21.3511 64.632L20.8711 65.784C20.6791 66.072 20.5831 66.552 20.4871 66.936C20.2951 67.224 20.1031 67.704 20.1031 68.088V68.568C20.0071 68.952 20.0071 69.336 19.8151 69.816C19.8151 69.912 19.9111 69.912 20.0071 69.912H20.1991C20.2951 69.912 20.2951 69.816 20.3911 69.816C20.4871 69.816 20.5831 69.912 20.7751 70.008C21.0631 70.296 20.8711 70.584 21.0631 70.776C21.2551 70.968 21.3511 71.064 21.3511 71.16C21.3511 71.256 21.2551 71.256 21.0631 71.352C20.9671 71.352 21.0631 71.448 21.0631 71.544C21.2551 71.544 21.2551 71.544 21.2551 71.448C21.3511 71.448 21.3511 71.448 21.4471 71.352C21.5431 71.256 21.5431 71.16 21.6391 71.16C21.7351 71.16 21.8311 71.256 21.8311 71.352C21.8311 71.544 22.1191 71.736 22.2151 71.832C22.4071 72.12 22.5031 72.216 22.6951 72.216C22.7911 72.216 22.8871 72.12 23.1751 72.024C23.2711 72.024 23.3671 71.928 23.3671 71.928C23.4631 71.928 23.5591 72.024 23.5591 72.024V72.312C23.5591 72.408 23.6551 72.504 23.6551 72.504C23.7511 72.504 23.8471 72.408 23.8471 72.408C24.2311 72.024 24.3271 71.544 25.0951 71.544C25.1911 71.544 25.1911 71.544 25.2871 71.448C25.8631 71.256 25.9591 70.872 26.1511 70.488C26.7271 69.912 27.2071 69.24 27.3991 68.664C27.6871 68.568 27.9751 68.376 27.9751 68.184C27.9751 68.088 27.8791 67.992 27.7831 67.896V67.704L28.6471 66.552C28.8391 66.168 29.3191 65.88 29.7031 65.496C30.0871 64.92 30.4711 64.44 30.7591 63.864C31.0471 63.384 31.3351 63 31.7191 62.616C32.3911 61.944 32.7751 61.08 33.3511 60.504L33.4471 60.216C33.6391 59.832 33.8311 59.448 34.3111 59.064C34.5991 58.584 35.2711 58.104 35.2711 57.72L35.7511 57.24L36.2311 56.664C36.6151 56.088 37.1911 55.512 37.6711 54.936C38.3431 53.976 39.2071 53.112 39.7831 52.056C40.0711 51.768 40.7431 51.096 40.7431 51C41.5111 50.904 41.6071 50.52 41.7991 50.136C42.1831 49.752 42.5671 49.176 42.9511 48.696C43.1431 48.504 43.2391 48.408 43.5271 48.312L43.3351 49.56L42.2791 52.44C42.1831 52.536 42.0871 52.728 42.0871 52.824L41.6071 54.84C41.1271 56.28 40.2631 57.72 39.7831 59.16C39.4951 60.216 39.2071 61.272 38.6311 62.424C38.2471 63.864 37.6711 65.496 36.9991 67.032C36.7111 67.8 36.5191 68.568 36.4231 69.336C36.3271 69.528 36.4231 69.816 36.4231 70.104L36.3271 70.68C36.2311 70.776 36.2311 70.872 36.2311 70.872C36.2311 70.968 36.4231 70.968 36.5191 71.064C36.7111 71.16 36.8071 71.16 36.9031 71.352C37.0951 71.64 37.0951 71.928 37.5751 72.024L37.7671 72.216C37.9591 72.504 38.3431 72.6 38.5351 72.696C38.8231 72.792 39.2071 72.888 39.2071 73.176C39.3031 73.272 39.3991 73.272 39.4951 73.272C39.5911 73.272 39.5911 73.272 39.6871 73.176L39.7831 73.08C39.7831 73.176 39.8791 73.272 40.0711 73.272C40.1671 73.272 40.3591 73.176 40.4551 73.176C40.5511 73.176 40.5511 73.272 40.8391 73.368C40.8391 73.56 40.8391 73.56 40.9351 73.56C40.9351 73.56 41.0311 73.56 41.1271 73.464L41.5111 73.08C41.6071 72.984 41.7031 72.888 41.9911 72.792C42.3751 72.696 42.7591 72.408 43.1431 72.12C43.3351 72.024 43.4311 71.928 43.4311 71.736V71.544C43.4311 71.448 43.4311 71.352 43.6231 71.256C43.9111 71.064 43.9111 70.776 43.9111 70.488C43.9111 70.488 44.1031 70.392 44.1031 70.296C44.2951 70.104 44.5831 69.816 44.5831 69.624C45.0631 69.24 45.5431 68.76 45.6391 68.376V68.184C45.6391 68.088 45.6391 67.896 45.7351 67.8C46.3111 66.744 47.0791 65.784 47.5591 64.728C47.8471 64.344 47.8471 64.056 48.1351 63.672L49.1911 62.328C49.3831 62.04 49.4791 61.752 49.4791 61.464L49.7671 61.08C50.0551 60.504 50.5351 60.216 50.7271 59.64C51.0151 58.872 51.6871 58.296 52.1671 57.528C52.4551 57.048 52.9351 56.568 53.2231 55.992L53.5111 55.224C54.0871 54.648 54.3751 53.88 54.8551 53.208C55.5271 52.728 55.6231 52.248 56.0071 51.768C56.1991 51.384 56.4871 51 56.7751 50.712L57.5431 49.752L58.5031 48.696C59.2711 47.928 59.7511 47.16 60.6151 46.392C61.0951 45.72 61.3831 45.144 62.2471 44.664C62.7271 44.088 63.1111 43.416 63.9751 42.936L64.0711 42.84C64.1671 42.456 64.6471 42.264 65.1271 41.976C65.5111 41.784 65.7991 41.4 65.9911 41.208C66.4711 40.728 66.8551 40.536 67.1431 40.056C67.5271 39.576 68.1031 39.384 68.4871 39C68.4871 38.904 68.5831 39 68.6791 39C68.7751 39 68.6791 39.096 68.8711 39.096L69.3511 38.424C69.3511 38.328 69.4471 38.136 69.5431 38.04C69.6391 38.04 69.6391 38.04 69.6391 38.136C69.3511 39 69.0631 39.768 68.4871 40.632L67.8151 42.36V42.552C67.8151 42.456 68.0071 42.456 68.0071 42.36L68.2951 41.592C68.3911 41.496 68.4871 41.4 68.5831 41.4C68.5831 41.496 68.6791 41.592 68.6791 41.592H68.5831C68.4871 41.976 68.2951 42.264 68.1031 42.648C67.7191 43.128 67.7191 43.8 67.0471 44.376V44.568C66.8551 44.664 66.8551 44.664 66.8551 44.76C66.5671 44.952 66.5671 45.24 66.4711 45.336C66.4711 45.528 66.3751 45.72 66.2791 45.912C65.9911 46.584 65.3191 47.256 65.1271 47.928C65.1271 48.216 64.9351 48.504 64.8391 48.696C64.5511 49.272 64.2631 49.752 63.7831 50.136C63.6871 50.424 63.6871 50.616 63.3991 50.808C63.2071 51 63.0151 51.288 62.9191 51.576C62.8231 51.864 62.8231 52.248 62.4391 52.536C62.3431 52.536 62.3431 52.632 62.3431 52.728C62.0551 53.304 61.8631 53.784 61.4791 54.168C61.3831 54.456 61.3831 54.552 61.3831 54.648C61.3831 54.84 61.2871 55.128 61.1911 55.224C61.1911 55.416 61.1911 55.608 60.9991 55.608C60.9031 55.608 60.9031 55.512 60.8071 55.512C60.8071 55.512 60.6151 55.608 60.7111 55.608C60.9031 55.8 60.8071 55.896 60.8071 56.088C60.8071 56.184 60.8071 56.376 60.7111 56.568H60.6151C60.6151 56.568 60.6151 56.664 60.7111 56.664C60.7111 56.856 60.8071 57.048 60.8071 57.144C60.8071 57.336 60.7111 57.528 60.4231 57.72C60.3271 58.008 60.2311 58.2 60.2311 58.392C60.2311 58.488 60.1351 58.68 60.2311 58.776C60.2311 58.968 60.0391 59.16 59.9431 59.16C59.4631 59.64 59.4631 60.12 59.2711 60.504C59.1751 61.08 59.1751 61.656 58.8871 62.136C58.4071 63 58.1191 63.864 57.9271 64.92C57.6391 65.88 57.5431 66.84 57.4471 67.896V69.336C57.3511 69.72 57.2551 69.912 56.9671 70.104ZM56.7751 69.816C56.7751 69.912 56.8711 69.912 56.8711 70.008L57.1591 69.336C57.1591 69.24 57.1591 69.048 57.0631 68.952C56.9671 68.664 56.8711 68.28 56.8711 67.992C56.8711 67.8 57.0631 67.608 57.1591 67.416C57.1591 67.32 57.1591 67.224 57.0631 67.224C56.9671 66.936 56.9671 66.648 56.9671 66.36C56.9671 66.168 57.0631 65.976 57.2551 65.688C57.3511 65.304 57.4471 64.92 57.4471 64.536V64.44C57.3511 64.44 57.2551 64.536 57.2551 64.536C57.0631 65.304 56.8711 65.976 56.8711 66.552C56.6791 67.8 56.6791 68.664 56.7751 69.816ZM57.3511 63.96C57.3511 63.96 57.2551 64.056 57.3511 64.056L57.5431 63.864C57.6391 63.672 57.8311 63.384 57.8311 63.192L58.0231 62.328V62.136C58.0231 62.136 57.8311 62.232 57.8311 62.328C57.6391 62.808 57.5431 63.288 57.3511 63.96ZM59.0791 59.928V59.64C59.0791 59.544 59.0791 59.448 58.9831 59.448C58.9831 59.448 58.7911 59.544 58.7911 59.64C58.7911 59.832 58.5991 60.024 58.5991 60.216C58.5991 60.312 58.5031 60.408 58.5991 60.504C58.5991 60.504 58.4071 60.696 58.4071 60.888C58.5991 60.696 58.7911 60.6 58.7911 60.504L59.1751 59.928H59.0791ZM56.8711 70.104H56.9671L56.8711 70.008V70.104Z" fill="white"/>
          <path d="M75.5123 83.64C75.5123 83.448 75.5123 83.256 75.7043 83.16C75.9923 82.296 76.0883 81.432 76.2803 80.664C76.3763 80.472 76.4723 80.28 76.4723 80.184C76.5683 80.088 76.5683 79.896 76.5683 79.704L76.6643 79.224C76.9523 78.456 76.9523 77.592 77.4323 76.632V76.344C77.5283 75.864 77.5283 75.384 78.2963 75C78.1043 74.904 78.0083 74.808 78.0083 74.712C78.0083 74.616 78.1043 74.52 78.1043 74.52L78.6803 73.176L78.7763 73.08C78.9683 72.984 78.9683 72.888 79.0643 72.888C79.6403 72.888 80.2163 73.08 80.6003 73.368L81.0803 73.656C81.5603 73.848 82.1363 74.04 82.5203 74.04H82.8083C83.1923 74.04 83.4803 74.136 83.8643 74.136C84.0563 74.136 84.2483 74.04 84.4403 74.04C84.7283 74.04 84.9203 74.136 85.2083 74.232H86.1683C86.6483 74.232 87.0323 74.136 87.5123 74.136H87.8003C87.8963 74.136 87.9923 74.04 88.0883 74.04C88.3763 73.656 88.9523 73.656 89.3363 73.464C89.5283 73.272 89.8163 73.176 90.2963 73.08C90.6803 73.08 90.9683 72.792 91.3523 72.696C91.5443 72.696 91.7363 72.6 92.0243 72.504C92.5043 72.12 93.0803 71.832 93.4643 71.736C93.6563 71.544 94.0403 71.448 94.3283 71.256C94.6163 70.968 94.9043 70.872 95.1923 70.68C95.8643 70.584 96.6323 70.296 96.8243 69.72C96.9203 69.624 97.2083 69.432 97.4003 69.432C97.4963 69.336 97.7843 69.24 97.9763 69.048C98.2643 68.76 98.5523 68.664 98.9363 68.568C99.2243 68.472 99.4163 68.28 99.7043 68.088L100.088 67.608C100.568 67.224 100.952 66.744 101.336 66.36C102.872 64.824 104.12 63.096 105.08 61.368L105.752 60.408C106.232 60.024 106.424 59.544 106.712 58.968C106.712 58.776 106.808 58.584 107.096 58.392C107.096 58.296 107.192 58.2 107.192 58.104C107.384 57.336 108.152 56.664 108.248 55.896L108.536 55.224C108.824 54.744 109.112 54.36 109.304 53.88C109.688 53.208 109.88 52.44 110.168 51.768C110.456 50.808 111.128 49.848 111.224 48.888C111.608 48.312 111.608 47.736 111.704 47.256C111.704 46.968 111.704 46.872 111.992 46.68C112.184 46.296 112.184 45.816 112.376 45.432C112.472 44.472 112.856 43.704 112.952 42.744C112.952 42.552 113.048 42.36 113.24 42.072V41.784C113.144 41.592 113.144 41.4 113.144 41.208L113.432 40.152L113.24 39.384C113.144 38.904 113.24 38.328 113.24 37.848C113.24 37.56 113.24 37.176 113.144 36.888C113.048 36.024 112.376 35.352 112.184 34.488C112.088 34.296 111.992 34.2 111.896 34.2C111.704 34.2 111.512 34.2 111.32 34.008C111.128 33.624 110.648 33.336 110.072 33.24L107.576 32.376C106.904 32.376 106.424 32.376 105.848 32.664C105.08 32.76 104.408 33.144 103.64 33.144C103.256 33.432 102.872 33.624 102.296 33.816C101.72 34.008 101.24 34.104 100.952 34.488L98.5523 36.12C98.2643 36.312 97.9763 36.504 97.6883 36.792C97.3043 37.464 96.5363 37.944 95.9603 38.616C95.6723 39.096 95.2883 39.576 94.9043 39.96L93.6563 41.4C93.2723 42.072 92.6963 42.744 92.0243 43.32L91.0643 44.856C90.6803 45.048 90.5843 45.24 90.4883 45.624C90.2003 46.104 89.8163 46.488 89.3363 46.968H89.1443C88.8563 46.776 88.8563 46.488 88.8563 46.2V45.912C89.0483 45.624 89.1443 45.336 89.1443 45.048C89.4323 44.568 89.5283 44.088 89.7203 43.608C89.9123 43.128 90.2963 42.648 90.4883 41.976C90.4883 41.976 90.4883 41.784 90.5843 41.688C90.9683 41.016 91.3523 40.248 91.5443 39.576C91.8323 39.096 91.9283 38.52 92.2163 37.944L92.7923 36.504C93.2723 35.544 93.7523 34.488 94.3283 33.528L94.7123 32.472L94.9043 31.992C94.9043 31.608 94.8083 31.224 94.6163 30.936C94.3283 30.456 94.0403 30.072 93.6563 29.688C93.5603 29.496 93.2723 29.496 93.1763 29.496L91.1603 29.112H90.8723C90.7763 29.112 90.5843 29.112 90.4883 29.208C89.5283 29.592 89.2403 29.88 88.7603 30.648C88.6643 30.84 88.6643 31.032 88.5683 31.032C88.0883 31.512 87.9923 31.992 87.5123 32.472C87.5123 32.76 87.2243 33.048 87.1283 33.24C86.0723 34.776 85.4003 36.312 84.8243 37.848C84.6323 38.136 84.5363 38.232 84.4403 38.52C84.4403 38.808 84.3443 39.192 84.0563 39.384C83.9603 39.48 83.9603 39.48 83.9603 39.576V39.768C83.5763 40.632 83.0963 41.496 83.0003 42.456C82.9043 42.744 82.8083 42.936 82.5203 43.128C82.4243 43.416 82.2323 43.704 81.9443 43.992C81.7523 44.664 81.2723 45.24 81.1763 45.912C81.1763 46.104 81.1763 46.2 81.0803 46.392C80.7923 46.776 80.6963 47.16 80.6003 47.448C80.5043 47.64 80.6003 47.736 80.6003 47.928C80.2163 48.696 80.0243 49.368 79.7363 50.136C79.3523 50.808 79.0643 51.48 79.0643 52.152C78.9683 52.344 78.9683 52.536 78.7763 52.728C78.2963 53.112 78.0083 53.688 77.9123 54.264C77.9123 54.456 77.9123 54.648 78.0083 54.84L77.9123 55.032C77.9123 55.128 77.9123 55.32 77.8163 55.416C77.8163 55.608 77.8163 55.704 77.6243 55.896C77.2403 56.376 76.8563 57.048 76.5683 57.72C76.0883 58.776 75.8003 59.928 75.7043 61.08L75.5123 62.52C75.5123 62.904 75.3203 63.192 75.3203 63.48C75.1283 64.344 74.8403 65.112 74.5523 65.976C74.4563 67.416 74.2643 68.76 73.4003 70.104C73.3043 70.2 73.3043 70.392 73.2083 70.68C73.1123 71.352 72.9203 72.024 72.5363 72.792C72.4403 72.984 72.3443 73.176 72.3443 73.368C72.3443 73.56 72.3443 73.656 72.4403 73.848C72.5363 73.944 72.5363 74.04 72.4403 74.232C72.4403 74.424 72.4403 74.712 72.3443 74.904C71.9603 75.672 71.7683 76.536 71.4803 77.496C71.4803 77.592 71.2883 77.784 71.0963 77.976C70.9043 78.072 70.8083 78.264 70.8083 78.456C70.6163 78.936 70.6163 79.512 70.5203 79.992L70.2323 82.488C70.2323 82.968 70.1363 83.448 69.9443 83.832C69.8483 84.6 69.5603 85.368 69.3683 86.136C69.3683 86.424 69.0803 86.904 69.0803 87.192C69.0803 87.576 69.1763 88.056 69.1763 88.44C69.0803 88.824 69.1763 89.208 69.2723 89.496C69.3683 90.072 69.6563 90.36 70.1363 90.744C70.4243 90.84 70.7123 90.936 70.9043 91.128C71.3843 91.416 71.7683 91.608 72.1523 92.088C72.2483 92.28 72.3443 92.376 72.4403 92.472C72.4403 92.472 72.4403 92.568 72.5363 92.568C72.6323 92.568 72.8243 92.664 72.9203 92.664C73.1123 92.664 73.3043 92.568 73.4963 92.472C73.5923 92.376 73.8803 92.28 74.0723 92.28C74.1683 92.28 74.2643 92.28 74.2643 92.376C74.2643 92.376 74.5523 92.28 74.7443 92.184C75.0323 91.896 75.1283 91.608 75.4163 91.224C75.5123 91.032 75.5123 90.936 75.5123 90.744V90.552C75.5123 89.88 75.4163 89.112 75.3203 88.44C75.2243 87.672 75.0323 86.904 75.1283 86.232L75.3203 85.368L75.5123 83.64ZM105.464 42.456L105.368 43.032C105.272 44.28 104.888 45.528 104.504 46.776C104.408 47.544 104.12 48.408 103.832 49.176C103.352 50.04 103.064 50.904 102.968 51.768C102.872 51.96 102.872 52.152 102.584 52.44C102.2 53.112 102.008 53.976 101.528 54.744C100.952 55.992 100.184 57.24 99.6083 58.392C99.2243 58.872 98.8403 59.352 98.5523 59.832L97.7843 60.888L97.0163 61.848C96.2483 62.616 95.4803 63.48 94.8083 64.344C94.7123 64.536 94.5203 64.728 94.3283 64.824C94.1363 64.92 93.8483 65.112 93.7523 65.304L92.0243 66.552C91.4483 66.936 90.9683 67.32 90.4883 67.8L90.0083 68.088C89.6243 68.28 89.3363 68.568 88.9523 68.856C88.5683 69.24 88.1843 69.336 87.8003 69.336C87.1283 69.432 86.5523 69.72 86.1683 70.2C86.0723 70.392 85.9763 70.392 85.6883 70.392C85.4963 70.392 85.3043 70.488 85.1123 70.584C84.8243 70.776 84.4403 70.872 84.2483 70.872H83.7683C83.2883 70.968 82.7123 70.968 82.2323 70.968C81.8483 70.968 81.5603 71.16 81.2723 71.16C80.9843 71.16 80.8883 71.064 80.6963 70.968C80.5043 70.776 80.4083 70.488 80.5043 70.296C80.5043 70.008 80.6003 69.816 80.8883 69.528C81.0803 69.432 81.1763 69.336 81.1763 69.24C81.5603 68.856 82.0403 68.376 82.3283 67.8C82.6163 67.224 83.0003 66.648 83.3843 66.264L83.7683 65.688L84.4403 64.92C84.7283 64.728 84.8243 64.248 85.2083 63.96C85.3043 63.576 85.4003 63.288 85.7843 62.904C86.0723 62.232 86.6483 61.656 87.1283 61.08C88.2803 59.832 89.1443 58.584 89.9123 57.24C91.0643 55.416 92.3123 53.592 93.5603 51.864C93.6563 51.576 93.9443 51.192 93.9443 50.904C94.1363 50.424 94.6163 49.848 95.1923 49.368L96.2483 47.736C96.6323 47.256 97.2083 46.68 97.4003 46.104C98.0723 45.336 98.6483 44.28 99.4163 43.512C100.088 42.936 100.28 42.264 100.952 41.784C101.144 41.208 101.72 40.728 102.296 40.344L102.584 39.96C103.256 39.096 104.12 38.616 105.176 37.848L105.272 37.752C105.368 37.752 105.56 37.752 105.656 37.848C105.752 38.04 105.848 38.232 105.848 38.424L105.752 38.616L105.848 41.112L105.464 42.456Z" fill="white"/>
          <path d="M147.019 44.28C147.115 43.896 147.115 43.704 147.019 43.224C147.115 42.84 146.635 42.648 146.443 42.456C146.251 42.072 146.155 41.592 145.579 41.592H145.291C145.195 41.688 145.195 41.496 145.195 41.496C144.427 41.4 143.851 41.304 143.467 40.824C143.371 40.728 143.275 40.728 143.179 40.728H142.891C142.795 40.728 142.699 40.632 142.603 40.632C142.507 40.632 142.411 40.824 142.315 41.112C142.219 41.208 142.123 41.304 142.027 41.304H141.931C141.931 41.112 141.835 41.016 141.739 41.016C141.643 41.016 141.643 41.016 141.451 41.208C141.451 41.304 141.259 41.4 141.067 41.4C140.587 41.4 140.011 41.4 139.627 41.88L138.667 42.168C138.571 42.264 138.187 42.456 138.091 42.648C137.611 42.936 137.227 43.512 136.651 43.704C136.555 43.704 136.459 43.8 136.363 43.8C136.075 44.28 135.499 44.184 135.403 44.76H135.307C134.731 44.76 134.539 45.048 134.443 45.336C134.251 45.72 133.771 46.2 133.387 46.2H133.291C132.907 46.2 132.715 46.392 132.619 46.584C132.331 47.064 132.139 47.544 131.851 47.832C131.563 48.12 131.083 48.408 130.795 48.888C130.699 48.888 130.603 49.08 130.507 49.08C130.027 49.08 129.835 49.368 129.643 49.944C129.643 50.04 129.451 50.136 129.451 50.232L129.067 50.712C128.971 51 128.779 51.288 128.491 51.288C128.395 51.288 128.107 51.384 127.915 51.672C127.819 51.864 127.819 52.152 127.531 52.152H127.339C127.243 52.152 127.051 52.248 126.955 52.344C126.955 52.536 126.859 52.632 126.859 52.728C127.051 52.728 127.051 52.44 127.243 52.44H127.339L126.955 53.112C126.859 53.112 126.763 53.304 126.667 53.496C126.475 53.688 126.379 53.784 126.379 53.976L126.283 54.168C126.283 54.264 126.283 54.36 126.187 54.456C125.899 54.456 125.707 54.744 125.515 55.032C125.515 55.224 125.323 55.32 125.227 55.416C125.131 55.416 125.035 55.32 125.035 55.224V55.128C125.035 55.032 125.131 55.032 125.131 54.936C125.131 54.936 125.227 54.84 125.131 54.84C125.035 54.84 124.939 54.936 124.843 54.936C124.747 55.512 124.075 56.088 123.979 56.856C123.979 56.856 123.979 56.952 123.883 56.952C123.883 56.952 123.787 56.856 123.691 56.856C123.691 56.76 123.787 56.568 123.691 56.472C123.691 56.568 123.595 56.664 123.499 56.76L122.923 57.72C122.827 57.72 122.827 57.816 122.635 58.008L122.251 58.488C121.771 59.16 121.099 59.736 120.715 60.504C120.715 60.6 120.619 60.6 120.523 60.6C120.523 60.696 120.427 60.696 120.427 60.696L120.331 60.6L120.715 59.448C121.195 58.008 121.771 56.664 122.347 55.416L124.171 50.52C124.267 50.328 124.267 50.136 124.363 50.04C124.747 49.272 124.843 48.6 125.131 47.832C125.227 47.544 125.419 47.352 125.419 47.064C125.611 46.584 125.899 46.008 125.995 45.432V44.856C125.995 44.76 126.091 44.664 126.091 44.472L126.859 42.84C126.859 42.456 126.955 41.976 127.147 41.4C127.627 40.824 127.819 40.152 127.819 39.48C128.011 39.192 128.107 39 128.107 38.808L129.259 36.216C129.451 35.544 129.739 34.968 130.219 34.488C130.699 33.816 130.987 33.144 131.371 32.376C131.659 31.896 131.851 31.32 132.331 30.936L133.003 29.688V29.4C133.099 29.016 132.907 28.728 132.715 28.44C132.619 27.96 132.043 27.96 131.755 27.576C131.179 27.576 130.795 27.864 130.507 27.48H130.411C130.219 27.576 130.123 27.576 130.027 27.576C129.931 27.576 129.931 27.48 129.835 27.384C129.739 27.288 129.643 27.288 129.451 27.288C129.259 27.288 129.067 27.288 128.875 27.48C128.587 27.576 128.299 27.768 128.107 27.576H127.819C127.531 27.864 127.723 28.248 127.339 28.248H127.051C126.955 28.152 126.955 28.152 126.859 28.152C126.763 28.152 126.571 28.248 126.475 28.344C125.899 28.92 125.419 29.496 125.035 30.072C124.651 30.936 124.075 31.704 123.883 32.664C123.499 33.624 122.923 34.488 122.539 35.352C122.155 36.216 121.771 37.08 121.483 37.944C121.387 38.904 120.523 40.632 119.851 41.4C119.371 42.168 119.659 42.84 119.179 43.8C118.795 43.992 118.603 44.472 118.507 44.76L118.123 45.624L118.027 46.296L116.971 48.696L116.779 49.464V50.232C116.779 50.328 116.683 50.328 116.587 50.328L116.395 52.056L116.011 52.44C116.011 52.728 116.011 53.016 115.819 53.4C115.531 54.36 115.339 55.224 115.243 56.184C115.147 56.184 114.955 56.376 114.955 56.376C114.955 56.568 114.859 56.856 114.763 57.144V57.432C114.763 57.624 114.571 57.72 114.571 57.816V58.392L114.187 58.68V59.16L113.995 59.448L113.899 59.736C113.803 60.312 113.611 60.984 113.323 61.464V62.136C113.035 64.536 112.363 65.496 112.267 66.648V68.568C111.883 69.528 111.883 70.392 111.499 71.352V71.736C111.883 72.216 112.267 73.752 112.267 74.52V74.808C112.267 74.808 112.459 75 112.555 75C112.459 74.904 112.555 75.096 112.651 75.096C112.747 75.096 113.035 75 112.939 74.808C112.939 74.808 113.035 74.616 113.131 74.616C113.323 74.616 114.283 75.288 114.763 75.768L116.395 76.344C116.491 76.248 117.643 75.768 117.931 75.384C118.315 75.096 118.795 74.712 119.083 74.136C119.467 73.752 119.659 73.272 120.043 72.6C120.619 72.12 120.907 71.352 121.291 70.776L122.539 68.952C123.211 68.28 123.595 67.32 124.363 66.456C124.939 65.88 125.419 64.92 125.899 64.248C126.187 63.672 126.475 63.384 126.859 62.712C127.243 62.232 127.723 61.752 127.915 61.08C128.107 60.984 128.203 60.6 128.395 60.408C128.683 60.312 128.779 60.12 128.875 60.024C129.259 59.448 129.547 58.68 130.123 58.2C130.699 57.336 131.371 56.568 132.043 55.704C132.907 54.456 133.867 53.112 135.211 51.864C136.651 50.52 138.187 48.888 140.107 47.736C140.299 47.64 140.491 47.352 140.587 47.352L140.683 47.448C140.779 47.544 140.683 47.832 140.779 47.928V48.408C140.779 48.504 140.779 48.6 140.875 48.696C140.971 48.6 141.259 48.504 141.259 48.408V47.928C141.259 47.832 141.163 47.64 141.259 47.544C141.355 47.256 141.451 47.16 141.547 47.16C141.643 47.16 141.643 47.16 141.739 47.256C142.027 47.544 142.123 47.64 142.123 48.024C142.123 48.216 142.315 48.504 142.507 48.504C142.507 48.6 142.603 48.6 142.603 48.6C142.699 48.6 142.795 48.408 142.891 48.312C142.987 48.12 143.083 48.024 143.179 48.024C143.275 48.024 143.371 48.12 143.467 48.216C143.563 48.408 143.659 48.6 143.851 48.792C144.043 48.792 144.043 48.792 144.043 48.696C144.331 48.408 144.523 48.024 144.523 47.928C144.619 47.832 144.811 47.736 144.907 47.736C145.003 47.736 145.099 47.832 145.195 47.928H145.291C145.291 47.928 145.387 47.928 145.387 47.832C145.387 47.64 145.483 47.544 145.579 47.256C145.579 47.064 145.771 46.968 145.963 46.68L146.059 47.256L146.347 47.544C146.347 47.448 146.443 47.256 146.443 47.064C146.347 46.872 146.443 46.68 146.443 46.584C146.443 46.392 146.539 46.2 146.635 46.008L147.019 44.76V44.28ZM124.747 55.704C124.843 55.704 124.843 55.608 124.843 55.512C124.939 55.608 124.939 55.704 125.035 55.704C124.939 55.704 124.939 55.8 124.843 55.8L124.747 55.704ZM126.475 53.112C126.475 53.112 126.667 52.92 126.667 52.824C126.571 52.824 126.475 52.92 126.475 53.016C126.379 53.016 126.379 53.112 126.379 53.112H126.475ZM126.763 52.728L126.667 52.824H126.763C126.763 52.824 126.859 52.824 126.859 52.728H126.763Z" fill="white"/>
          <path d="M155.283 73.848L157.779 72.312C158.451 72.024 159.219 71.544 159.891 70.776L160.275 70.584L162.771 68.568C162.867 68.376 162.963 68.376 163.059 68.376H163.347C163.827 67.992 163.923 67.8 164.211 67.128L164.595 66.552C164.787 66.456 164.979 66.36 165.075 66.168C165.267 65.976 165.555 65.688 165.843 65.688C165.843 65.592 166.899 64.728 166.995 64.632L167.571 63.96C167.571 63.576 168.147 63.288 168.627 62.808C168.915 62.52 168.819 62.328 169.107 62.136C169.395 61.944 169.491 61.56 169.779 61.368C169.971 61.08 170.067 60.792 170.067 60.696V60.504C170.163 60.12 170.259 60.024 170.451 59.832C171.219 59.352 171.507 58.68 171.987 58.104V57.816C171.987 57.816 173.331 56.184 173.331 56.088C173.331 55.992 168.147 61.464 168.147 61.368C168.243 61.08 170.547 58.2 172.467 56.088V55.992C172.371 55.896 167.955 60.216 167.955 60.12C167.955 60.024 172.947 54.84 174.291 53.208L163.443 63.576C163.443 63.576 169.875 56.856 171.411 55.512C173.235 53.496 176.019 51.096 176.019 50.904C176.019 50.808 172.947 53.688 172.659 53.496C172.659 53.4 171.603 55.032 171.507 55.128C169.203 56.472 166.419 58.776 164.979 59.928C167.763 57.432 173.043 52.824 172.851 53.016C172.851 52.824 172.851 52.632 173.043 52.44C173.043 52.44 175.539 50.328 175.347 50.328C175.251 50.328 172.467 52.44 172.371 52.44C171.987 52.44 172.083 52.92 171.891 53.016C171.603 53.208 170.643 53.496 170.643 53.88V53.976C170.067 54.36 169.971 54.264 169.395 54.744C168.915 55.224 168.627 55.704 168.147 55.8L166.131 57.912C165.939 58.296 165.651 58.392 165.171 58.68C164.787 59.544 164.211 59.928 163.827 60.216C163.251 60.408 163.155 61.272 162.579 61.56C162.387 61.752 161.811 62.04 161.523 62.328V62.424C161.523 62.52 161.523 62.52 161.427 62.616C161.427 62.712 161.427 62.808 161.331 62.904H161.235C160.755 62.904 160.563 63.288 160.179 63.672C159.795 63.672 159.507 64.056 159.219 64.632C159.123 64.728 159.027 64.728 158.931 64.728L157.683 65.88L156.435 66.648C156.051 67.128 155.475 67.32 154.899 67.8L153.363 68.184L153.267 68.472V68.568L152.883 68.76C152.787 68.856 152.691 68.952 152.499 68.952C152.211 68.952 151.827 69.144 151.731 69.336C151.539 69.432 151.251 69.528 151.059 69.528H150.771C150.771 69.432 150.675 69.432 150.579 69.432C150.483 69.432 150.387 69.432 150.291 69.528C150.099 69.72 150.003 69.816 149.811 69.816C149.619 69.816 149.427 69.72 149.235 69.72L148.275 69.912H148.083C147.699 69.816 147.315 69.624 147.219 69.336C146.931 68.856 146.547 68.568 146.547 68.088C146.547 67.992 146.643 67.8 146.739 67.608C146.739 67.416 146.643 67.32 146.643 67.128C146.643 66.936 146.547 66.936 146.643 66.744C146.643 66.552 146.739 66.264 146.835 66.168C146.931 65.976 147.027 65.688 147.027 65.592L147.123 64.344H147.411C147.411 64.152 147.507 63.96 147.603 63.768C147.987 62.808 147.987 62.808 148.947 62.232C149.235 62.136 149.331 62.04 149.523 62.04C149.811 62.04 150.099 61.944 150.483 61.944L151.539 61.656C151.827 61.368 152.403 61.176 152.691 60.984C153.075 60.792 153.459 60.504 154.035 60.312H154.227V60.216C154.611 59.832 155.187 59.544 155.763 59.16C156.339 58.872 157.011 58.584 157.587 58.008L158.451 57.432C159.123 57.048 159.891 56.664 160.467 55.992C161.139 55.704 161.523 55.128 162.003 54.648C162.099 54.456 162.195 54.264 162.195 54.168L162.675 53.4C162.867 53.304 162.867 53.112 162.963 53.016V52.728L163.827 51.384C164.115 50.808 164.403 50.04 164.787 49.464L164.883 49.08C165.075 48.504 165.171 47.928 165.267 47.448C165.363 47.16 165.363 46.776 165.459 46.584L165.747 46.008V45.144L165.843 44.376C165.843 43.992 165.843 43.8 165.555 43.512C165.363 43.224 165.267 42.936 165.171 42.456C165.075 42.264 165.171 41.976 164.883 41.88C164.595 41.4 164.499 41.112 164.211 41.016C164.019 40.92 163.827 40.728 163.731 40.536C163.443 40.056 162.867 39.864 162.387 39.672L161.523 39.384C161.523 39.288 161.331 39.192 161.043 39.192H160.371C160.083 39 159.795 39 159.411 39C159.123 39 158.835 39.096 158.547 39.192C158.451 39.288 158.259 39.288 158.067 39.288L157.587 39.48C157.587 39.48 157.491 39.576 157.395 39.576H157.299C156.531 40.056 155.763 40.632 154.995 40.92C154.707 41.016 154.323 41.304 154.323 41.688C154.131 42.072 153.747 42.456 153.459 42.552C153.363 42.744 153.075 42.936 152.883 43.224C152.787 43.416 152.595 43.512 152.403 43.8L151.347 44.76C150.963 44.952 150.867 45.336 150.579 45.72L150.483 45.816L149.139 47.64L148.851 48.12C148.467 48.408 148.275 48.888 148.083 49.08L147.315 50.136C147.027 50.424 146.835 50.616 146.835 50.808L145.203 53.592C144.915 53.976 144.819 54.456 144.435 54.936C144.051 55.992 143.379 56.856 143.091 57.912L142.995 58.584C142.707 58.68 142.707 59.064 142.611 59.448C142.323 60.408 141.939 61.368 141.747 62.232V63.096C141.651 63.192 141.651 63.384 141.555 63.384L141.363 64.152V67.608L141.651 67.32L141.939 67.224L141.843 67.8L141.555 67.896L141.363 68.28V68.376L141.747 70.584L141.651 71.352L142.227 72.312C142.515 72.792 143.187 73.08 143.571 73.368C143.763 73.56 143.955 73.752 144.243 73.752C144.915 73.944 145.299 74.136 145.683 74.52C146.355 74.712 147.699 75 148.467 75H148.659C148.947 75 148.851 75.096 149.043 75.096L150.675 74.904C151.059 74.808 151.443 74.712 151.731 74.712H152.115L154.035 74.04V74.136L155.283 73.848ZM152.115 54.168C152.115 54.168 152.115 54.072 152.019 54.072L152.115 53.784L152.595 52.728V52.632C152.595 52.344 152.979 52.152 153.075 51.96C153.075 51.864 153.171 51.768 153.267 51.768C153.555 51.576 153.747 51.48 153.843 51.096V50.904C153.843 50.616 153.939 50.52 154.227 50.232C154.323 50.136 154.515 49.944 154.515 49.752L155.283 48.792L156.051 47.928C156.051 47.64 156.339 47.544 156.531 47.352C156.819 46.968 157.203 46.584 157.587 46.296V46.008C158.067 45.816 158.547 45.24 158.931 44.856L159.507 44.376H159.795C159.987 44.376 160.083 44.472 160.179 44.664C160.371 44.76 160.275 44.952 160.275 45.048V45.528C159.795 45.816 159.699 46.2 159.507 46.68C159.219 47.448 158.739 48.312 158.163 48.792C158.067 48.888 157.971 49.08 157.971 49.176C157.779 49.848 157.395 50.328 156.915 50.712L155.955 51.864C155.379 52.248 154.803 52.536 154.515 52.92C154.035 53.4 153.363 53.784 152.499 54.168H152.115ZM174.771 53.688C174.771 53.592 174.195 54.168 173.715 54.744L174.771 53.688ZM174.291 53.208C174.675 53.016 174.771 52.824 174.867 52.728L174.291 53.208Z" fill="white"/>
          <path d="M240.875 50.136C240.875 50.04 240.683 49.944 240.587 49.944C240.491 49.944 240.395 49.944 240.395 50.04C239.723 50.328 235.307 52.344 234.923 52.44C233.771 53.112 233.099 53.688 232.043 54.36C230.987 54.744 229.547 55.512 228.203 56.28C227.819 56.568 225.131 57.528 224.651 57.624C224.555 57.624 224.363 57.72 224.267 57.72C224.171 57.72 224.267 57.624 224.171 57.528L220.619 54.168C219.755 53.112 218.411 52.344 217.163 51.48C216.683 51.192 216.203 50.52 215.915 50.136C215.819 50.04 215.723 49.848 215.723 49.752C215.723 49.656 215.819 49.56 215.819 49.464C215.915 49.08 216.011 48.984 216.299 48.888C217.643 47.448 219.083 46.008 220.811 45.048C221.675 44.568 222.443 43.896 223.595 43.608C223.883 43.32 224.363 43.128 224.555 42.84C225.899 41.496 227.915 41.304 229.259 39.96H229.355C229.451 39.96 229.547 39.96 229.643 39.864C230.891 39.192 232.619 38.904 233.771 38.136C233.963 38.136 234.155 38.04 234.347 38.04C235.595 38.04 236.555 37.272 237.707 37.272C237.995 36.888 238.475 36.696 238.859 36.216C238.859 36.216 238.859 36.024 238.763 36.024C238.379 35.64 238.379 35.064 238.283 34.296C238.091 34.104 238.091 33.816 237.611 33.624C237.611 33.336 237.227 33.24 236.939 33.24C236.843 32.856 236.939 32.472 236.843 32.376C236.651 31.992 236.651 31.992 236.555 31.992C236.171 31.8 235.787 31.608 235.115 31.608C234.827 31.608 234.443 31.608 234.155 31.8C233.675 31.896 233.195 31.896 232.523 31.896H231.755C230.795 31.896 229.643 31.992 228.779 32.76H228.203C225.707 34.488 223.019 35.736 220.811 37.176C219.755 37.944 218.699 38.808 217.451 39.576C216.107 40.44 215.051 41.784 213.611 42.84C213.419 42.936 213.323 43.128 213.227 43.224L212.363 44.376C211.979 44.76 211.499 45.24 211.307 45.624C210.539 45.816 209.963 45.816 209.483 46.008L207.467 46.776C207.275 46.872 207.083 46.968 206.987 46.968C206.699 46.968 206.411 46.776 205.931 46.776H205.643C205.259 47.16 204.875 47.16 204.395 47.736C204.395 47.832 204.203 47.928 204.203 47.928C203.339 47.928 203.051 48.216 202.571 48.408L201.803 48.888C201.323 48.984 200.555 49.176 199.883 49.848L199.307 49.944C199.115 50.04 199.115 50.136 199.019 50.232H198.635C198.539 50.136 198.347 50.136 198.251 50.136C198.059 50.136 197.963 50.232 197.867 50.328C197.675 50.52 197.003 50.808 192.875 52.152L192.683 52.056H192.491V52.152H192.299L192.203 52.248C192.107 52.248 192.107 52.44 191.915 52.536C191.915 52.632 191.723 52.632 191.531 52.632C191.531 52.632 191.339 52.536 191.339 52.44C191.435 52.344 191.627 52.152 191.723 52.152C192.203 51.864 192.299 51.768 192.203 51.768C192.011 51.768 190.475 52.344 190.187 52.344C190.091 52.344 189.995 52.248 189.995 52.152C189.611 51.96 189.323 51.96 188.939 51.768L188.075 51.576L187.019 51C186.539 50.904 186.155 50.808 185.771 50.616L182.699 49.848C181.931 49.752 180.971 49.656 180.203 49.368C180.011 49.272 179.723 49.272 179.627 49.08C179.531 48.696 179.243 48.696 178.955 48.6C178.763 48.6 178.667 48.504 178.475 48.312C178.283 48.216 178.283 48.024 178.283 47.928V47.832C178.283 47.64 178.379 47.352 178.571 47.256L180.011 45.72C180.587 44.952 181.259 44.376 182.027 43.992C182.891 43.128 183.947 42.168 184.907 41.592L186.635 40.344C187.307 39.96 187.883 39.576 188.651 39.288C189.131 38.808 189.515 38.616 189.995 38.232L192.203 36.888L194.891 35.64C195.275 35.448 195.563 35.256 196.043 35.16C196.235 35.16 196.619 34.68 196.811 34.584C197.963 34.296 199.019 33.912 200.171 33.432C200.747 33.336 201.323 33.048 202.091 32.952C203.339 32.856 204.587 32.664 205.931 32.664H206.603C206.987 32.664 207.275 32.76 207.659 32.76C208.523 33.144 209.291 33.528 210.251 33.816L210.059 33.912C210.347 34.008 210.539 34.104 210.827 34.104C211.115 34.104 211.211 34.008 211.787 33.816C211.883 33.72 211.883 33.624 212.075 33.624C212.651 33.624 212.747 33.048 212.843 32.664C212.939 31.992 212.939 31.32 212.939 30.36C212.747 29.496 212.171 29.688 210.827 28.632C210.443 27.96 209.291 26.712 206.987 26.52H206.315C205.643 26.52 204.875 26.616 204.107 26.904L203.819 26.808C203.243 26.904 202.571 27 201.803 27C201.035 27 200.363 27.096 199.499 27.768H199.211C199.211 27.672 199.115 27.576 199.115 27.576H198.923L195.563 28.92C195.467 28.92 195.275 29.112 195.275 29.208C195.179 29.496 194.987 29.496 194.699 29.592L193.547 29.784C192.971 30.072 192.203 30.072 191.819 31.128C191.723 31.224 191.627 31.416 191.435 31.416C191.339 31.416 191.243 31.416 191.147 31.224C191.147 31.128 191.147 31.128 191.051 31.128C190.955 31.128 190.667 31.224 190.571 31.224L189.803 31.704C189.611 31.8 189.515 31.896 189.515 31.992C189.323 32.28 189.131 32.376 188.939 32.472C188.267 32.856 187.787 33.432 186.923 33.624C186.731 33.624 186.731 33.816 186.443 34.008C186.059 34.296 185.771 34.392 185.291 34.584H185.195C184.811 35.16 184.235 35.16 183.755 35.448C183.659 35.544 183.371 35.736 183.371 35.928C183.371 36.024 183.371 36.024 183.467 36.12C183.467 36.216 183.371 36.408 183.371 36.408C183.275 36.408 183.275 36.312 183.083 36.12H182.891C182.315 36.6 181.643 36.888 181.259 37.368C180.779 37.656 180.491 38.136 180.011 38.232C179.915 38.232 179.819 38.424 179.723 38.52V38.712C179.723 39 179.627 39.096 179.435 39.096H179.147C178.187 39.768 177.035 40.344 176.267 41.304L174.923 42.456C174.731 42.744 174.251 43.032 174.155 43.416C173.867 43.608 173.675 43.8 173.579 43.992V44.088C173.771 44.28 173.771 44.472 173.771 44.664C173.675 44.952 173.675 45.144 173.483 45.432C173.387 45.816 173.291 46.2 173.291 46.488L173.195 46.872V47.928C173.195 48.408 173.291 48.888 173.579 49.368L173.483 49.752C173.483 50.232 173.483 50.712 173.579 51.384C173.963 51.96 174.155 52.44 174.731 52.92C175.115 53.4 175.595 53.88 176.075 54.072C177.035 54.264 177.803 54.744 178.571 54.84L180.971 55.704L183.659 56.184L186.539 56.856C186.251 57.144 186.059 57.528 185.675 57.912C185.579 58.008 185.483 58.2 185.387 58.2C184.619 58.68 180.875 61.08 180.299 61.56C179.723 62.232 179.723 62.424 179.723 62.424C179.627 62.424 179.339 62.616 178.571 63.384C178.571 63.576 177.323 64.248 177.323 64.248C176.267 64.248 175.883 65.112 175.883 65.784L175.787 65.688C175.595 65.688 175.115 66.168 174.347 67.608C174.347 67.608 174.251 67.608 174.155 67.704C173.771 67.992 173.675 68.376 173.579 68.76V69.432C173.483 69.72 173.579 70.008 173.579 70.296L173.483 70.488C173.483 70.68 173.387 70.776 173.291 70.968V71.064C173.291 71.544 173.387 72.12 173.483 72.504C173.483 72.696 173.579 72.792 173.579 72.792L173.195 73.176C173.003 73.176 173.003 73.176 173.003 73.272C173.003 73.368 173.003 73.464 173.099 73.656C173.195 73.944 173.099 74.232 173.291 74.328C173.963 74.808 173.771 75.48 174.443 75.672C174.347 76.248 174.731 76.44 175.019 76.632L175.211 77.016C175.787 77.592 176.555 78.072 177.419 78.168C177.611 78.168 177.707 78.264 177.995 78.264H178.283C178.859 78.264 179.627 78.072 180.299 77.784C180.683 77.688 181.163 77.688 181.355 77.496C181.643 77.208 182.027 77.4 182.411 77.208L183.371 77.016L186.347 75.48C187.499 75 188.075 74.52 188.843 73.944C189.899 73.176 190.955 72.696 191.915 71.736L193.643 70.296L194.795 69.144C195.947 67.992 196.715 66.648 197.483 65.112C197.579 64.728 197.771 64.44 197.771 64.152C197.867 63.672 197.963 63.192 198.155 62.712V61.848L198.347 61.272C198.251 59.544 198.059 58.008 197.387 56.472V55.512C197.195 55.32 197.195 55.128 197.195 54.936L199.691 53.88C200.459 53.304 201.323 52.824 202.187 52.632L207.275 49.944L209.963 49.08V49.368C209.867 50.04 209.771 50.712 209.963 51.48C210.443 52.824 211.499 54.168 212.555 55.128C213.515 55.896 214.571 56.472 215.339 57.144C216.395 57.912 217.259 58.68 218.123 59.544C218.891 60.216 219.179 60.408 219.179 60.6C219.179 60.792 218.411 60.888 217.067 61.848L216.299 62.232C215.339 63 213.995 63.096 212.939 63.864C212.267 64.44 211.499 65.208 210.731 65.496C210.635 65.688 210.539 65.688 210.539 65.688C209.963 66.36 208.907 66.84 208.139 67.512C207.563 67.992 207.179 68.856 206.891 69.432C206.315 69.624 205.835 70.104 205.451 70.488C205.355 70.68 204.971 71.928 204.971 72.216L204.875 72.408C204.875 72.6 204.779 72.888 204.779 73.08C204.683 73.56 204.779 73.848 204.779 74.232V74.328C204.779 74.424 204.779 74.616 204.683 74.712C204.587 74.904 204.491 75.096 204.491 75.192L204.395 75.288C204.395 75.48 204.587 75.576 204.779 75.768C204.779 75.864 204.971 76.056 205.163 76.056C205.643 76.536 206.123 76.824 206.219 77.4C206.507 77.496 206.507 77.784 206.603 77.784C207.275 77.88 208.043 77.976 208.523 77.976H209.099C210.443 77.784 211.691 77.496 213.227 77.016L216.779 75.768C217.451 75.768 217.739 75.384 218.507 75.288C219.467 74.328 220.811 73.56 221.867 72.696C222.635 72.12 223.115 71.448 223.787 70.872C224.459 70.2 224.939 69.528 225.227 68.952C225.419 68.472 225.419 67.896 225.899 67.224L225.995 67.032L226.379 63.864C226.379 63.192 226.283 62.616 226.091 62.136C225.995 61.944 225.995 61.848 225.995 61.752C225.995 61.464 226.187 61.368 226.763 61.08C226.763 60.984 228.203 60.216 228.203 60.12C228.299 60.024 229.547 59.16 229.643 59.16H229.835C230.699 59.064 231.083 58.68 231.563 58.296L235.019 55.704C235.691 55.416 236.267 54.936 236.651 54.36C237.131 53.688 241.355 51.48 241.931 50.808C242.315 50.616 242.603 50.232 242.987 50.04V49.752C242.219 49.944 237.707 52.248 236.747 52.92C236.363 53.112 235.979 53.304 235.403 53.496L233.291 54.744C233.291 54.744 233.099 54.744 233.003 54.648C233.003 54.648 233.291 54.456 233.387 54.264C233.483 54.072 233.771 53.88 234.059 53.784C234.635 53.304 235.499 53.016 236.363 52.536C236.555 52.44 240.587 50.424 240.875 50.136ZM178.667 72.792C178.667 72.696 178.763 72.6 178.763 72.504C178.859 72.12 178.283 72.024 178.283 71.832L178.379 71.736L179.339 70.296L181.835 67.032L183.275 65.688C183.659 65.016 184.427 64.44 184.907 64.056L187.307 61.752C187.979 61.368 188.459 60.888 189.131 60.312L191.627 58.296C191.819 58.2 192.011 58.2 192.203 58.2C192.395 58.2 192.683 58.2 192.875 58.488C193.067 59.064 193.163 59.736 193.163 60.312L192.971 61.368C192.875 62.04 192.395 62.616 192.011 63.096C191.723 63.768 191.243 64.248 190.859 64.632C190.475 65.208 190.091 65.784 189.515 66.168C189.131 66.456 188.843 66.744 188.267 66.84C188.171 66.84 188.171 66.84 188.075 66.936C186.827 68.376 186.155 68.856 184.139 69.624L182.507 70.392C182.411 70.392 182.315 70.488 182.219 70.488C182.219 70.68 182.123 70.776 182.123 70.872H182.411L184.907 69.528C185.003 69.528 185.099 69.432 185.195 69.432C185.291 69.432 185.291 69.528 185.291 69.624V70.008L184.907 70.296C183.371 70.968 182.027 71.736 180.395 72.408C179.819 72.696 179.147 72.6 178.667 72.792ZM220.907 66.072C220.235 67.224 219.467 67.992 218.315 69.048C218.219 69.336 217.835 69.432 217.451 69.72C215.531 71.16 214.667 71.448 212.747 72.504C212.651 72.504 212.555 72.408 212.555 72.408C212.459 72.408 212.459 72.504 212.363 72.6C212.075 72.6 211.691 72.408 211.787 72.024V71.832C211.787 71.64 211.883 71.352 212.459 71.16L214.571 68.952C216.587 67.896 218.507 66.552 220.139 65.304L220.331 65.112C220.427 65.208 220.907 65.208 221.003 65.208L221.099 65.304C221.099 65.592 220.907 65.88 220.907 66.072ZM185.099 36.408C185.195 36.024 185.771 36.12 185.963 35.64C185.963 35.16 186.251 34.872 186.827 34.584C187.403 34.488 187.787 34.104 188.075 33.912C188.363 33.912 188.651 33.72 188.939 33.528C189.035 33.432 189.035 33.432 189.131 33.432C189.227 33.432 189.323 33.624 189.323 33.72C189.323 33.912 189.419 34.104 189.419 34.2C189.323 34.488 189.131 34.68 188.843 34.872C188.459 34.872 188.267 35.064 188.075 35.256C187.403 35.928 186.539 36.6 185.483 36.792L184.427 37.08C184.043 37.272 183.563 37.56 183.371 37.848C183.083 38.136 182.699 38.328 182.219 38.712L181.451 39.672C181.259 39.864 181.067 40.248 180.971 40.248C180.875 40.248 180.875 40.152 180.779 40.152C180.683 40.152 180.491 40.248 180.395 40.344C179.915 40.824 179.147 41.208 178.667 41.592C177.899 42.648 176.843 43.608 175.979 44.568L175.499 45.24C175.403 45.144 175.307 45.144 175.307 44.952L175.499 44.568L177.323 42.264C177.899 41.784 178.379 41.4 178.763 40.92C179.243 40.248 180.395 40.056 180.875 39.096C180.875 38.52 181.355 38.328 181.643 38.136C182.027 38.04 182.123 37.848 182.315 37.56C182.507 37.368 182.507 37.272 182.699 37.176C182.699 37.176 182.699 37.08 182.795 37.08C182.891 37.08 182.891 37.176 182.987 37.176C183.083 37.368 183.083 37.464 183.179 37.464C183.275 37.464 183.371 37.368 183.371 37.272C183.563 37.08 183.755 36.888 184.139 36.888L185.099 36.408ZM175.499 45.336H175.595L175.691 45.432C175.691 45.528 175.595 45.528 175.595 45.528L175.499 45.336Z" fill="white"/>
        </svg>